<svg width="236" height="236" viewBox="0 0 236 236" fill="none" xmlns="http://www.w3.org/2000/svg">
<path d="M196 2H204C213.319 2 217.978 2 221.654 3.52241C226.554 5.55229 230.448 9.44577 232.478 14.3463C234 18.0218 234 22.6812 234 32V36" stroke="#F66A0A" stroke-width="4" stroke-linecap="round"/>
<path d="M39 2H32C22.6812 2 18.0218 2 14.3463 3.52241C9.44577 5.55229 5.55229 9.44577 3.52241 14.3463C2 18.0218 2 22.6812 2 32V37" stroke="#F66A0A" stroke-width="4" stroke-linecap="round"/>
<path d="M196 234H204C213.319 234 217.978 234 221.654 232.478C226.554 230.448 230.448 226.554 232.478 221.654C234 217.978 234 213.319 234 204V199" stroke="#F66A0A" stroke-width="4" stroke-linecap="round"/>
<path d="M39 234H32C22.6812 234 18.0218 234 14.3463 232.478C9.44577 230.448 5.55229 226.554 3.52241 221.654C2 217.978 2 213.319 2 204V199" stroke="#F66A0A" stroke-width="4" stroke-linecap="round"/>
</svg>
